<?xml version="1.0" encoding="utf-8"?>
<svg width="400" height="400" viewBox="0 0 400 400" fill="none" xmlns="http://www.w3.org/2000/svg">
  <defs>
    <path id="path-0" style="fill: none;" d="M 186.085 59.251 C 187.221 60.213 188.618 61.761 189.215 62.063 C 190.12 62.835 191.096 63.436 191.912 63.986 C 193.325 64.888 194.622 65.33 195.69 66.038 C 196.843 66.646 197.691 67.221 198.537 67.785 C 199.506 68.682 200.33 69.505 201.159 70.334 C 202.435 71.61 203.243 72.656 204.143 73.557 C 205.113 74.381 205.928 74.964 206.769 75.596 C 207.884 76.484 209.05 76.958 209.824 77.732 C 210.885 78.72 212.267 79.535 213.314 79.882 C 214.719 80.396 215.661 81.123 216.747 81.555 C 218.281 82.394 219.573 82.87 220.83 83.499 C 221.974 84.311 223.131 84.923 223.963 85.755 C 225.214 86.708 226.469 87.601 227.543 87.868 C 228.858 88.448 230.002 89.269 231.113 89.562 C 232.558 90.211 233.737 90.798 234.959 91.203 C 236.288 91.899 237.595 92.188 238.377 92.969 C 239.535 93.909 241.106 93.982 242.022 94.589 C 243.569 95.359 244.902 95.855 246.15 96.479 C 247.637 97.101 248.946 97.257 250.143 97.828 C 251.542 98.491 252.662 99.075 253.795 99.732 C 255.37 100.257 256.476 100.841 257.639 101.227 C 259.699 101.91 261.809 102.266 263.261 102.992 C 264.602 103.437 265.721 103.806 266.836 104.176 C 268.198 104.627 269.381 105.317 270.572 105.514 C 272.066 105.814 273.046 106.499 274.236 106.758 C 275.51 107.445 276.792 107.486 277.7 108.087 C 279.138 108.517 280.252 108.621 281.423 108.815 C 283.075 109.265 285.041 109.733 286.453 109.733 C 287.848 110.102 289.216 110.16 290.387 110.355 C 291.85 110.792 293.189 111.142 294.28 111.142 C 296.196 111.7 297.796 112.056 299.404 112.589 C 301.143 113.239 302.758 113.158 304.015 113.47 C 305.756 113.542 307.14 114.295 308.532 114.295 C 309.851 114.295 311.116 114.731 312.328 114.731 C 313.635 115.058 314.7 115.022 315.757 115.022 C 318.14 115.022 320.022 114.74 321.904 114.74 C 323.473 114.74 324.717 114.958 325.894 114.958 C 327.285 115.165 328.508 115.249 329.774 115.249 C 332 115.475 333.783 115.487 335.589 115.487 C 337.225 115.487 338.455 115.191 339.715 115.191 C 341.236 115.191 342.584 115.043 343.884 115.043 C 345.22 114.969 346.33 114.821 347.471 114.821 C 348.762 114.533 350.195 114.357 351.372 114.357 C 353.28 114.357 354.771 113.951 356.056 113.692 C 357.587 113.692 358.576 113.414 359.764 113.174 C 361.557 112.737 363.477 112.67 364.925 112.67 C 366.507 112.452 367.805 112.601 369.07 112.226 C 370.899 111.406 372.336 111.597 373.874 111.186 L 374.239 111.112 C 375.509 111.112 376.753 110.87 378.01 110.87"/>
  </defs>
  <title>github [#142]</title>
  <desc>Created with Sketch.</desc>
  <g style="" transform="matrix(0.480153, 0, 0, 0.480153, -14.337999, 223.281616)">
    <path d="M 174.41 227.629 C 161.524 231.286 153.07 237.698 147.501 244.105 C 152.835 239.437 159.98 235.153 169.618 232.421 C 179.476 229.627 187.886 229.647 194.835 230.988 L 194.835 225.554 C 188.907 225.012 182.111 225.444 174.41 227.629 Z M 146.912 181.949 L 99.056 194.557 C 99.056 194.557 99.928 195.789 101.543 197.433 L 142.119 186.741 C 142.119 186.741 141.544 194.15 136.551 200.778 C 145.996 193.632 146.912 181.949 146.912 181.949 Z M 186.971 294.42 C 119.624 312.559 83.993 234.511 73.206 194.001 C 68.222 175.302 66.046 161.14 65.466 152.001 C 65.404 151.052 65.433 150.252 65.5 149.519 C 62.006 149.73 60.334 151.546 60.674 156.794 C 61.254 165.928 63.43 180.089 68.414 198.794 C 79.196 239.298 114.832 317.346 182.179 299.207 C 196.838 295.258 207.851 288.065 216.118 278.883 C 208.498 285.765 198.961 291.185 186.971 294.42 Z M 199.627 134.183 L 199.627 138.976 L 226.043 138.976 C 225.501 137.279 224.955 135.75 224.413 134.183 L 199.627 134.183 Z" fill="#2D4552"/>
    <path d="M 231.947 173.657 C 243.827 177.031 250.11 185.36 253.431 192.731 L 266.677 196.493 C 266.677 196.493 264.87 170.696 241.536 164.068 C 219.707 157.866 206.274 176.197 204.64 178.569 C 210.99 174.045 220.263 170.341 231.947 173.657 Z M 337.388 192.85 C 315.539 186.62 302.111 204.989 300.501 207.328 C 306.856 202.809 316.124 199.104 327.803 202.435 C 339.664 205.814 345.942 214.133 349.273 221.509 L 362.538 225.285 C 362.538 225.285 360.702 199.483 337.388 192.85 Z M 324.228 260.868 L 214.038 230.063 C 214.038 230.063 215.231 236.111 219.808 243.942 L 312.583 269.878 C 320.221 265.459 324.228 260.868 324.228 260.868 Z M 247.833 327.175 C 160.584 303.783 171.132 192.616 185.25 139.938 C 191.063 118.229 197.039 102.094 201.995 91.277 C 199.038 90.669 196.589 92.226 194.169 97.148 C 188.907 107.82 182.178 125.197 175.666 149.523 C 161.552 202.2 151.004 313.363 238.249 336.755 C 279.372 347.772 311.408 331.028 335.289 304.732 C 312.621 325.263 283.68 336.774 247.833 327.175 Z" fill="#2D4552"/>
    <path d="M 199.627 268.369 L 199.627 245.936 L 137.299 263.61 C 137.299 263.61 141.904 236.85 174.41 227.629 C 184.268 224.835 192.679 224.854 199.627 226.196 L 199.627 134.183 L 230.835 134.183 C 227.437 123.683 224.15 115.599 221.389 109.982 C 216.822 100.685 212.14 106.848 201.511 115.738 C 194.025 121.992 175.105 135.334 146.634 143.006 C 118.163 150.683 95.145 148.647 85.541 146.984 C 71.926 144.635 64.805 141.645 65.471 152.001 C 66.051 161.135 68.227 175.297 73.211 194.001 C 83.993 234.506 119.629 312.554 186.976 294.415 C 204.568 289.675 216.985 280.306 225.592 268.364 L 199.627 268.364 L 199.627 268.369 Z M 99.051 194.557 L 146.912 181.949 C 146.912 181.949 145.517 200.361 127.575 205.091 C 109.628 209.816 99.051 194.557 99.051 194.557 Z" fill="#E2574C"/>
    <path d="M 379.752 135.247 C 367.311 137.428 337.464 140.145 300.578 130.258 C 263.682 120.377 239.202 103.096 229.503 94.973 C 215.754 83.457 209.706 75.454 203.754 87.559 C 198.492 98.236 191.763 115.613 185.25 139.939 C 171.137 192.616 160.589 303.779 247.833 327.171 C 335.059 350.543 381.496 248.993 395.61 196.311 C 402.123 171.99 404.979 153.573 405.765 141.698 C 406.661 128.246 397.421 132.151 379.752 135.247 Z M 204.463 178.829 C 204.463 178.829 218.212 157.445 241.531 164.073 C 264.865 170.701 266.672 196.498 266.672 196.498 L 204.463 178.829 Z M 261.386 274.786 C 220.369 262.771 214.043 230.063 214.043 230.063 L 324.228 260.869 C 324.228 260.864 301.987 286.651 261.386 274.786 Z M 300.343 207.568 C 300.343 207.568 314.073 186.199 337.388 192.846 C 360.702 199.484 362.538 225.281 362.538 225.281 L 300.343 207.568 Z" fill="#2EAD33"/>
    <path d="M 177.846 252.113 L 137.299 263.605 C 137.299 263.605 141.703 238.513 171.573 228.569 L 148.613 142.403 L 146.629 143.006 C 118.158 150.684 95.14 148.647 85.537 146.984 C 71.922 144.636 64.8 141.645 65.466 152.002 C 66.046 161.136 68.222 175.297 73.206 194.002 C 83.989 234.506 119.625 312.554 186.971 294.415 L 188.955 293.792 L 177.846 252.113 Z M 99.051 194.558 L 146.912 181.949 C 146.912 181.949 145.517 200.361 127.575 205.091 C 109.628 209.816 99.051 194.558 99.051 194.558 Z" fill="#D65348"/>
    <path d="M 263.236 275.236 L 261.381 274.785 C 220.364 262.771 214.038 230.063 214.038 230.063 L 270.856 245.945 L 300.937 130.354 L 300.573 130.258 C 263.677 120.377 239.198 103.096 229.498 94.973 C 215.749 83.457 209.701 75.454 203.749 87.559 C 198.492 98.236 191.763 115.613 185.25 139.939 C 171.137 192.616 160.589 303.779 247.833 327.17 L 249.621 327.573 L 263.236 275.236 Z M 204.463 178.829 C 204.463 178.829 218.212 157.445 241.531 164.073 C 264.865 170.701 266.672 196.498 266.672 196.498 L 204.463 178.829 Z" fill="#1D8D22"/>
    <path d="M 179.912 251.524 L 169.038 254.61 C 171.607 269.092 176.135 282.99 183.242 295.268 C 184.479 294.995 185.706 294.76 186.966 294.415 C 190.268 293.524 193.33 292.421 196.278 291.218 C 188.337 279.434 183.084 265.862 179.912 251.524 Z M 175.666 149.524 C 170.078 170.38 165.079 200.399 166.455 230.509 C 168.918 229.44 171.52 228.444 174.41 227.624 L 176.423 227.174 C 173.969 195.012 179.274 162.238 185.25 139.939 C 186.765 134.298 188.284 129.051 189.798 124.158 C 187.359 125.71 184.733 127.301 181.742 128.94 C 179.725 135.166 177.688 141.971 175.666 149.524 Z" fill="#C04B41"/>
  </g>
  <g style="" transform="matrix(0.480153, 0, 0, 0.480153, 179.277069, 226.352493)">
    <path d="M 174.41 227.629 C 161.524 231.286 153.07 237.698 147.501 244.105 C 152.835 239.437 159.98 235.153 169.618 232.421 C 179.476 229.627 187.886 229.647 194.835 230.988 L 194.835 225.554 C 188.907 225.012 182.111 225.444 174.41 227.629 Z M 146.912 181.949 L 99.056 194.557 C 99.056 194.557 99.928 195.789 101.543 197.433 L 142.119 186.741 C 142.119 186.741 141.544 194.15 136.551 200.778 C 145.996 193.632 146.912 181.949 146.912 181.949 Z M 186.971 294.42 C 119.624 312.559 83.993 234.511 73.206 194.001 C 68.222 175.302 66.046 161.14 65.466 152.001 C 65.404 151.052 65.433 150.252 65.5 149.519 C 62.006 149.73 60.334 151.546 60.674 156.794 C 61.254 165.928 63.43 180.089 68.414 198.794 C 79.196 239.298 114.832 317.346 182.179 299.207 C 196.838 295.258 207.851 288.065 216.118 278.883 C 208.498 285.765 198.961 291.185 186.971 294.42 Z M 199.627 134.183 L 199.627 138.976 L 226.043 138.976 C 225.501 137.279 224.955 135.75 224.413 134.183 L 199.627 134.183 Z" fill="#2D4552"/>
    <path d="M 231.947 173.657 C 243.827 177.031 250.11 185.36 253.431 192.731 L 266.677 196.493 C 266.677 196.493 264.87 170.696 241.536 164.068 C 219.707 157.866 206.274 176.197 204.64 178.569 C 210.99 174.045 220.263 170.341 231.947 173.657 Z M 337.388 192.85 C 315.539 186.62 302.111 204.989 300.501 207.328 C 306.856 202.809 316.124 199.104 327.803 202.435 C 339.664 205.814 345.942 214.133 349.273 221.509 L 362.538 225.285 C 362.538 225.285 360.702 199.483 337.388 192.85 Z M 324.228 260.868 L 214.038 230.063 C 214.038 230.063 215.231 236.111 219.808 243.942 L 312.583 269.878 C 320.221 265.459 324.228 260.868 324.228 260.868 Z M 247.833 327.175 C 160.584 303.783 171.132 192.616 185.25 139.938 C 191.063 118.229 197.039 102.094 201.995 91.277 C 199.038 90.669 196.589 92.226 194.169 97.148 C 188.907 107.82 182.178 125.197 175.666 149.523 C 161.552 202.2 151.004 313.363 238.249 336.755 C 279.372 347.772 311.408 331.028 335.289 304.732 C 312.621 325.263 283.68 336.774 247.833 327.175 Z" fill="#2D4552"/>
    <path d="M 199.627 268.369 L 199.627 245.936 L 137.299 263.61 C 137.299 263.61 141.904 236.85 174.41 227.629 C 184.268 224.835 192.679 224.854 199.627 226.196 L 199.627 134.183 L 230.835 134.183 C 227.437 123.683 224.15 115.599 221.389 109.982 C 216.822 100.685 212.14 106.848 201.511 115.738 C 194.025 121.992 175.105 135.334 146.634 143.006 C 118.163 150.683 95.145 148.647 85.541 146.984 C 71.926 144.635 64.805 141.645 65.471 152.001 C 66.051 161.135 68.227 175.297 73.211 194.001 C 83.993 234.506 119.629 312.554 186.976 294.415 C 204.568 289.675 216.985 280.306 225.592 268.364 L 199.627 268.364 L 199.627 268.369 Z M 99.051 194.557 L 146.912 181.949 C 146.912 181.949 145.517 200.361 127.575 205.091 C 109.628 209.816 99.051 194.557 99.051 194.557 Z" fill="#E2574C"/>
    <path d="M 379.752 135.247 C 367.311 137.428 337.464 140.145 300.578 130.258 C 263.682 120.377 239.202 103.096 229.503 94.973 C 215.754 83.457 209.706 75.454 203.754 87.559 C 198.492 98.236 191.763 115.613 185.25 139.939 C 171.137 192.616 160.589 303.779 247.833 327.171 C 335.059 350.543 381.496 248.993 395.61 196.311 C 402.123 171.99 404.979 153.573 405.765 141.698 C 406.661 128.246 397.421 132.151 379.752 135.247 Z M 204.463 178.829 C 204.463 178.829 218.212 157.445 241.531 164.073 C 264.865 170.701 266.672 196.498 266.672 196.498 L 204.463 178.829 Z M 261.386 274.786 C 220.369 262.771 214.043 230.063 214.043 230.063 L 324.228 260.869 C 324.228 260.864 301.987 286.651 261.386 274.786 Z M 300.343 207.568 C 300.343 207.568 314.073 186.199 337.388 192.846 C 360.702 199.484 362.538 225.281 362.538 225.281 L 300.343 207.568 Z" fill="#2EAD33"/>
    <path d="M 177.846 252.113 L 137.299 263.605 C 137.299 263.605 141.703 238.513 171.573 228.569 L 148.613 142.403 L 146.629 143.006 C 118.158 150.684 95.14 148.647 85.537 146.984 C 71.922 144.636 64.8 141.645 65.466 152.002 C 66.046 161.136 68.222 175.297 73.206 194.002 C 83.989 234.506 119.625 312.554 186.971 294.415 L 188.955 293.792 L 177.846 252.113 Z M 99.051 194.558 L 146.912 181.949 C 146.912 181.949 145.517 200.361 127.575 205.091 C 109.628 209.816 99.051 194.558 99.051 194.558 Z" fill="#D65348"/>
    <path d="M 263.236 275.236 L 261.381 274.785 C 220.364 262.771 214.038 230.063 214.038 230.063 L 270.856 245.945 L 300.937 130.354 L 300.573 130.258 C 263.677 120.377 239.198 103.096 229.498 94.973 C 215.749 83.457 209.701 75.454 203.749 87.559 C 198.492 98.236 191.763 115.613 185.25 139.939 C 171.137 192.616 160.589 303.779 247.833 327.17 L 249.621 327.573 L 263.236 275.236 Z M 204.463 178.829 C 204.463 178.829 218.212 157.445 241.531 164.073 C 264.865 170.701 266.672 196.498 266.672 196.498 L 204.463 178.829 Z" fill="#1D8D22"/>
    <path d="M 179.912 251.524 L 169.038 254.61 C 171.607 269.092 176.135 282.99 183.242 295.268 C 184.479 294.995 185.706 294.76 186.966 294.415 C 190.268 293.524 193.33 292.421 196.278 291.218 C 188.337 279.434 183.084 265.862 179.912 251.524 Z M 175.666 149.524 C 170.078 170.38 165.079 200.399 166.455 230.509 C 168.918 229.44 171.52 228.444 174.41 227.624 L 176.423 227.174 C 173.969 195.012 179.274 162.238 185.25 139.939 C 186.765 134.298 188.284 129.051 189.798 124.158 C 187.359 125.71 184.733 127.301 181.742 128.94 C 179.725 135.166 177.688 141.971 175.666 149.524 Z" fill="#C04B41"/>
  </g>
  <g style="" transform="matrix(0.480153, 0, 0, 0.480153, 171.35672, 97.367233)">
    <path d="M 174.41 227.629 C 161.524 231.286 153.07 237.698 147.501 244.105 C 152.835 239.437 159.98 235.153 169.618 232.421 C 179.476 229.627 187.886 229.647 194.835 230.988 L 194.835 225.554 C 188.907 225.012 182.111 225.444 174.41 227.629 Z M 146.912 181.949 L 99.056 194.557 C 99.056 194.557 99.928 195.789 101.543 197.433 L 142.119 186.741 C 142.119 186.741 141.544 194.15 136.551 200.778 C 145.996 193.632 146.912 181.949 146.912 181.949 Z M 186.971 294.42 C 119.624 312.559 83.993 234.511 73.206 194.001 C 68.222 175.302 66.046 161.14 65.466 152.001 C 65.404 151.052 65.433 150.252 65.5 149.519 C 62.006 149.73 60.334 151.546 60.674 156.794 C 61.254 165.928 63.43 180.089 68.414 198.794 C 79.196 239.298 114.832 317.346 182.179 299.207 C 196.838 295.258 207.851 288.065 216.118 278.883 C 208.498 285.765 198.961 291.185 186.971 294.42 Z M 199.627 134.183 L 199.627 138.976 L 226.043 138.976 C 225.501 137.279 224.955 135.75 224.413 134.183 L 199.627 134.183 Z" fill="#2D4552"/>
    <path d="M 231.947 173.657 C 243.827 177.031 250.11 185.36 253.431 192.731 L 266.677 196.493 C 266.677 196.493 264.87 170.696 241.536 164.068 C 219.707 157.866 206.274 176.197 204.64 178.569 C 210.99 174.045 220.263 170.341 231.947 173.657 Z M 337.388 192.85 C 315.539 186.62 302.111 204.989 300.501 207.328 C 306.856 202.809 316.124 199.104 327.803 202.435 C 339.664 205.814 345.942 214.133 349.273 221.509 L 362.538 225.285 C 362.538 225.285 360.702 199.483 337.388 192.85 Z M 324.228 260.868 L 214.038 230.063 C 214.038 230.063 215.231 236.111 219.808 243.942 L 312.583 269.878 C 320.221 265.459 324.228 260.868 324.228 260.868 Z M 247.833 327.175 C 160.584 303.783 171.132 192.616 185.25 139.938 C 191.063 118.229 197.039 102.094 201.995 91.277 C 199.038 90.669 196.589 92.226 194.169 97.148 C 188.907 107.82 182.178 125.197 175.666 149.523 C 161.552 202.2 151.004 313.363 238.249 336.755 C 279.372 347.772 311.408 331.028 335.289 304.732 C 312.621 325.263 283.68 336.774 247.833 327.175 Z" fill="#2D4552"/>
    <path d="M 199.627 268.369 L 199.627 245.936 L 137.299 263.61 C 137.299 263.61 141.904 236.85 174.41 227.629 C 184.268 224.835 192.679 224.854 199.627 226.196 L 199.627 134.183 L 230.835 134.183 C 227.437 123.683 224.15 115.599 221.389 109.982 C 216.822 100.685 212.14 106.848 201.511 115.738 C 194.025 121.992 175.105 135.334 146.634 143.006 C 118.163 150.683 95.145 148.647 85.541 146.984 C 71.926 144.635 64.805 141.645 65.471 152.001 C 66.051 161.135 68.227 175.297 73.211 194.001 C 83.993 234.506 119.629 312.554 186.976 294.415 C 204.568 289.675 216.985 280.306 225.592 268.364 L 199.627 268.364 L 199.627 268.369 Z M 99.051 194.557 L 146.912 181.949 C 146.912 181.949 145.517 200.361 127.575 205.091 C 109.628 209.816 99.051 194.557 99.051 194.557 Z" fill="#E2574C"/>
    <path d="M 379.752 135.247 C 367.311 137.428 337.464 140.145 300.578 130.258 C 263.682 120.377 239.202 103.096 229.503 94.973 C 215.754 83.457 209.706 75.454 203.754 87.559 C 198.492 98.236 191.763 115.613 185.25 139.939 C 171.137 192.616 160.589 303.779 247.833 327.171 C 335.059 350.543 381.496 248.993 395.61 196.311 C 402.123 171.99 404.979 153.573 405.765 141.698 C 406.661 128.246 397.421 132.151 379.752 135.247 Z M 204.463 178.829 C 204.463 178.829 218.212 157.445 241.531 164.073 C 264.865 170.701 266.672 196.498 266.672 196.498 L 204.463 178.829 Z M 261.386 274.786 C 220.369 262.771 214.043 230.063 214.043 230.063 L 324.228 260.869 C 324.228 260.864 301.987 286.651 261.386 274.786 Z M 300.343 207.568 C 300.343 207.568 314.073 186.199 337.388 192.846 C 360.702 199.484 362.538 225.281 362.538 225.281 L 300.343 207.568 Z" fill="#2EAD33"/>
    <path d="M 177.846 252.113 L 137.299 263.605 C 137.299 263.605 141.703 238.513 171.573 228.569 L 148.613 142.403 L 146.629 143.006 C 118.158 150.684 95.14 148.647 85.537 146.984 C 71.922 144.636 64.8 141.645 65.466 152.002 C 66.046 161.136 68.222 175.297 73.206 194.002 C 83.989 234.506 119.625 312.554 186.971 294.415 L 188.955 293.792 L 177.846 252.113 Z M 99.051 194.558 L 146.912 181.949 C 146.912 181.949 145.517 200.361 127.575 205.091 C 109.628 209.816 99.051 194.558 99.051 194.558 Z" fill="#D65348"/>
    <path d="M 263.236 275.236 L 261.381 274.785 C 220.364 262.771 214.038 230.063 214.038 230.063 L 270.856 245.945 L 300.937 130.354 L 300.573 130.258 C 263.677 120.377 239.198 103.096 229.498 94.973 C 215.749 83.457 209.701 75.454 203.749 87.559 C 198.492 98.236 191.763 115.613 185.25 139.939 C 171.137 192.616 160.589 303.779 247.833 327.17 L 249.621 327.573 L 263.236 275.236 Z M 204.463 178.829 C 204.463 178.829 218.212 157.445 241.531 164.073 C 264.865 170.701 266.672 196.498 266.672 196.498 L 204.463 178.829 Z" fill="#1D8D22"/>
    <path d="M 179.912 251.524 L 169.038 254.61 C 171.607 269.092 176.135 282.99 183.242 295.268 C 184.479 294.995 185.706 294.76 186.966 294.415 C 190.268 293.524 193.33 292.421 196.278 291.218 C 188.337 279.434 183.084 265.862 179.912 251.524 Z M 175.666 149.524 C 170.078 170.38 165.079 200.399 166.455 230.509 C 168.918 229.44 171.52 228.444 174.41 227.624 L 176.423 227.174 C 173.969 195.012 179.274 162.238 185.25 139.939 C 186.765 134.298 188.284 129.051 189.798 124.158 C 187.359 125.71 184.733 127.301 181.742 128.94 C 179.725 135.166 177.688 141.971 175.666 149.524 Z" fill="#C04B41"/>
  </g>
  <g style="" transform="matrix(0.480153, 0, 0, 0.480153, 171.671478, -23.760378)">
    <path d="M 174.41 227.629 C 161.524 231.286 153.07 237.698 147.501 244.105 C 152.835 239.437 159.98 235.153 169.618 232.421 C 179.476 229.627 187.886 229.647 194.835 230.988 L 194.835 225.554 C 188.907 225.012 182.111 225.444 174.41 227.629 Z M 146.912 181.949 L 99.056 194.557 C 99.056 194.557 99.928 195.789 101.543 197.433 L 142.119 186.741 C 142.119 186.741 141.544 194.15 136.551 200.778 C 145.996 193.632 146.912 181.949 146.912 181.949 Z M 186.971 294.42 C 119.624 312.559 83.993 234.511 73.206 194.001 C 68.222 175.302 66.046 161.14 65.466 152.001 C 65.404 151.052 65.433 150.252 65.5 149.519 C 62.006 149.73 60.334 151.546 60.674 156.794 C 61.254 165.928 63.43 180.089 68.414 198.794 C 79.196 239.298 114.832 317.346 182.179 299.207 C 196.838 295.258 207.851 288.065 216.118 278.883 C 208.498 285.765 198.961 291.185 186.971 294.42 Z M 199.627 134.183 L 199.627 138.976 L 226.043 138.976 C 225.501 137.279 224.955 135.75 224.413 134.183 L 199.627 134.183 Z" fill="#2D4552"/>
    <path d="M 231.947 173.657 C 243.827 177.031 250.11 185.36 253.431 192.731 L 266.677 196.493 C 266.677 196.493 264.87 170.696 241.536 164.068 C 219.707 157.866 206.274 176.197 204.64 178.569 C 210.99 174.045 220.263 170.341 231.947 173.657 Z M 337.388 192.85 C 315.539 186.62 302.111 204.989 300.501 207.328 C 306.856 202.809 316.124 199.104 327.803 202.435 C 339.664 205.814 345.942 214.133 349.273 221.509 L 362.538 225.285 C 362.538 225.285 360.702 199.483 337.388 192.85 Z M 324.228 260.868 L 214.038 230.063 C 214.038 230.063 215.231 236.111 219.808 243.942 L 312.583 269.878 C 320.221 265.459 324.228 260.868 324.228 260.868 Z M 247.833 327.175 C 160.584 303.783 171.132 192.616 185.25 139.938 C 191.063 118.229 197.039 102.094 201.995 91.277 C 199.038 90.669 196.589 92.226 194.169 97.148 C 188.907 107.82 182.178 125.197 175.666 149.523 C 161.552 202.2 151.004 313.363 238.249 336.755 C 279.372 347.772 311.408 331.028 335.289 304.732 C 312.621 325.263 283.68 336.774 247.833 327.175 Z" fill="#2D4552"/>
    <path d="M 199.627 268.369 L 199.627 245.936 L 137.299 263.61 C 137.299 263.61 141.904 236.85 174.41 227.629 C 184.268 224.835 192.679 224.854 199.627 226.196 L 199.627 134.183 L 230.835 134.183 C 227.437 123.683 224.15 115.599 221.389 109.982 C 216.822 100.685 212.14 106.848 201.511 115.738 C 194.025 121.992 175.105 135.334 146.634 143.006 C 118.163 150.683 95.145 148.647 85.541 146.984 C 71.926 144.635 64.805 141.645 65.471 152.001 C 66.051 161.135 68.227 175.297 73.211 194.001 C 83.993 234.506 119.629 312.554 186.976 294.415 C 204.568 289.675 216.985 280.306 225.592 268.364 L 199.627 268.364 L 199.627 268.369 Z M 99.051 194.557 L 146.912 181.949 C 146.912 181.949 145.517 200.361 127.575 205.091 C 109.628 209.816 99.051 194.557 99.051 194.557 Z" fill="#E2574C"/>
    <path d="M 379.752 135.247 C 367.311 137.428 337.464 140.145 300.578 130.258 C 263.682 120.377 239.202 103.096 229.503 94.973 C 215.754 83.457 209.706 75.454 203.754 87.559 C 198.492 98.236 191.763 115.613 185.25 139.939 C 171.137 192.616 160.589 303.779 247.833 327.171 C 335.059 350.543 381.496 248.993 395.61 196.311 C 402.123 171.99 404.979 153.573 405.765 141.698 C 406.661 128.246 397.421 132.151 379.752 135.247 Z M 204.463 178.829 C 204.463 178.829 218.212 157.445 241.531 164.073 C 264.865 170.701 266.672 196.498 266.672 196.498 L 204.463 178.829 Z M 261.386 274.786 C 220.369 262.771 214.043 230.063 214.043 230.063 L 324.228 260.869 C 324.228 260.864 301.987 286.651 261.386 274.786 Z M 300.343 207.568 C 300.343 207.568 314.073 186.199 337.388 192.846 C 360.702 199.484 362.538 225.281 362.538 225.281 L 300.343 207.568 Z" fill="#2EAD33"/>
    <path d="M 177.846 252.113 L 137.299 263.605 C 137.299 263.605 141.703 238.513 171.573 228.569 L 148.613 142.403 L 146.629 143.006 C 118.158 150.684 95.14 148.647 85.537 146.984 C 71.922 144.636 64.8 141.645 65.466 152.002 C 66.046 161.136 68.222 175.297 73.206 194.002 C 83.989 234.506 119.625 312.554 186.971 294.415 L 188.955 293.792 L 177.846 252.113 Z M 99.051 194.558 L 146.912 181.949 C 146.912 181.949 145.517 200.361 127.575 205.091 C 109.628 209.816 99.051 194.558 99.051 194.558 Z" fill="#D65348"/>
    <path d="M 263.236 275.236 L 261.381 274.785 C 220.364 262.771 214.038 230.063 214.038 230.063 L 270.856 245.945 L 300.937 130.354 L 300.573 130.258 C 263.677 120.377 239.198 103.096 229.498 94.973 C 215.749 83.457 209.701 75.454 203.749 87.559 C 198.492 98.236 191.763 115.613 185.25 139.939 C 171.137 192.616 160.589 303.779 247.833 327.17 L 249.621 327.573 L 263.236 275.236 Z M 204.463 178.829 C 204.463 178.829 218.212 157.445 241.531 164.073 C 264.865 170.701 266.672 196.498 266.672 196.498 L 204.463 178.829 Z" fill="#1D8D22"/>
    <path d="M 179.912 251.524 L 169.038 254.61 C 171.607 269.092 176.135 282.99 183.242 295.268 C 184.479 294.995 185.706 294.76 186.966 294.415 C 190.268 293.524 193.33 292.421 196.278 291.218 C 188.337 279.434 183.084 265.862 179.912 251.524 Z M 175.666 149.524 C 170.078 170.38 165.079 200.399 166.455 230.509 C 168.918 229.44 171.52 228.444 174.41 227.624 L 176.423 227.174 C 173.969 195.012 179.274 162.238 185.25 139.939 C 186.765 134.298 188.284 129.051 189.798 124.158 C 187.359 125.71 184.733 127.301 181.742 128.94 C 179.725 135.166 177.688 141.971 175.666 149.524 Z" fill="#C04B41"/>
  </g>
  <g style="" transform="matrix(0.480153, 0, 0, 0.480153, -8.039851, -22.626745)">
    <path d="M 174.41 227.629 C 161.524 231.286 153.07 237.698 147.501 244.105 C 152.835 239.437 159.98 235.153 169.618 232.421 C 179.476 229.627 187.886 229.647 194.835 230.988 L 194.835 225.554 C 188.907 225.012 182.111 225.444 174.41 227.629 Z M 146.912 181.949 L 99.056 194.557 C 99.056 194.557 99.928 195.789 101.543 197.433 L 142.119 186.741 C 142.119 186.741 141.544 194.15 136.551 200.778 C 145.996 193.632 146.912 181.949 146.912 181.949 Z M 186.971 294.42 C 119.624 312.559 83.993 234.511 73.206 194.001 C 68.222 175.302 66.046 161.14 65.466 152.001 C 65.404 151.052 65.433 150.252 65.5 149.519 C 62.006 149.73 60.334 151.546 60.674 156.794 C 61.254 165.928 63.43 180.089 68.414 198.794 C 79.196 239.298 114.832 317.346 182.179 299.207 C 196.838 295.258 207.851 288.065 216.118 278.883 C 208.498 285.765 198.961 291.185 186.971 294.42 Z M 199.627 134.183 L 199.627 138.976 L 226.043 138.976 C 225.501 137.279 224.955 135.75 224.413 134.183 L 199.627 134.183 Z" fill="#2D4552"/>
    <path d="M 231.947 173.657 C 243.827 177.031 250.11 185.36 253.431 192.731 L 266.677 196.493 C 266.677 196.493 264.87 170.696 241.536 164.068 C 219.707 157.866 206.274 176.197 204.64 178.569 C 210.99 174.045 220.263 170.341 231.947 173.657 Z M 337.388 192.85 C 315.539 186.62 302.111 204.989 300.501 207.328 C 306.856 202.809 316.124 199.104 327.803 202.435 C 339.664 205.814 345.942 214.133 349.273 221.509 L 362.538 225.285 C 362.538 225.285 360.702 199.483 337.388 192.85 Z M 324.228 260.868 L 214.038 230.063 C 214.038 230.063 215.231 236.111 219.808 243.942 L 312.583 269.878 C 320.221 265.459 324.228 260.868 324.228 260.868 Z M 247.833 327.175 C 160.584 303.783 171.132 192.616 185.25 139.938 C 191.063 118.229 197.039 102.094 201.995 91.277 C 199.038 90.669 196.589 92.226 194.169 97.148 C 188.907 107.82 182.178 125.197 175.666 149.523 C 161.552 202.2 151.004 313.363 238.249 336.755 C 279.372 347.772 311.408 331.028 335.289 304.732 C 312.621 325.263 283.68 336.774 247.833 327.175 Z" fill="#2D4552"/>
    <path d="M 199.627 268.369 L 199.627 245.936 L 137.299 263.61 C 137.299 263.61 141.904 236.85 174.41 227.629 C 184.268 224.835 192.679 224.854 199.627 226.196 L 199.627 134.183 L 230.835 134.183 C 227.437 123.683 224.15 115.599 221.389 109.982 C 216.822 100.685 212.14 106.848 201.511 115.738 C 194.025 121.992 175.105 135.334 146.634 143.006 C 118.163 150.683 95.145 148.647 85.541 146.984 C 71.926 144.635 64.805 141.645 65.471 152.001 C 66.051 161.135 68.227 175.297 73.211 194.001 C 83.993 234.506 119.629 312.554 186.976 294.415 C 204.568 289.675 216.985 280.306 225.592 268.364 L 199.627 268.364 L 199.627 268.369 Z M 99.051 194.557 L 146.912 181.949 C 146.912 181.949 145.517 200.361 127.575 205.091 C 109.628 209.816 99.051 194.557 99.051 194.557 Z" fill="#E2574C"/>
    <path d="M 379.752 135.247 C 367.311 137.428 337.464 140.145 300.578 130.258 C 263.682 120.377 239.202 103.096 229.503 94.973 C 215.754 83.457 209.706 75.454 203.754 87.559 C 198.492 98.236 191.763 115.613 185.25 139.939 C 171.137 192.616 160.589 303.779 247.833 327.171 C 335.059 350.543 381.496 248.993 395.61 196.311 C 402.123 171.99 404.979 153.573 405.765 141.698 C 406.661 128.246 397.421 132.151 379.752 135.247 Z M 204.463 178.829 C 204.463 178.829 218.212 157.445 241.531 164.073 C 264.865 170.701 266.672 196.498 266.672 196.498 L 204.463 178.829 Z M 261.386 274.786 C 220.369 262.771 214.043 230.063 214.043 230.063 L 324.228 260.869 C 324.228 260.864 301.987 286.651 261.386 274.786 Z M 300.343 207.568 C 300.343 207.568 314.073 186.199 337.388 192.846 C 360.702 199.484 362.538 225.281 362.538 225.281 L 300.343 207.568 Z" fill="#2EAD33"/>
    <path d="M 177.846 252.113 L 137.299 263.605 C 137.299 263.605 141.703 238.513 171.573 228.569 L 148.613 142.403 L 146.629 143.006 C 118.158 150.684 95.14 148.647 85.537 146.984 C 71.922 144.636 64.8 141.645 65.466 152.002 C 66.046 161.136 68.222 175.297 73.206 194.002 C 83.989 234.506 119.625 312.554 186.971 294.415 L 188.955 293.792 L 177.846 252.113 Z M 99.051 194.558 L 146.912 181.949 C 146.912 181.949 145.517 200.361 127.575 205.091 C 109.628 209.816 99.051 194.558 99.051 194.558 Z" fill="#D65348"/>
    <path d="M 263.236 275.236 L 261.381 274.785 C 220.364 262.771 214.038 230.063 214.038 230.063 L 270.856 245.945 L 300.937 130.354 L 300.573 130.258 C 263.677 120.377 239.198 103.096 229.498 94.973 C 215.749 83.457 209.701 75.454 203.749 87.559 C 198.492 98.236 191.763 115.613 185.25 139.939 C 171.137 192.616 160.589 303.779 247.833 327.17 L 249.621 327.573 L 263.236 275.236 Z M 204.463 178.829 C 204.463 178.829 218.212 157.445 241.531 164.073 C 264.865 170.701 266.672 196.498 266.672 196.498 L 204.463 178.829 Z" fill="#1D8D22"/>
    <path d="M 179.912 251.524 L 169.038 254.61 C 171.607 269.092 176.135 282.99 183.242 295.268 C 184.479 294.995 185.706 294.76 186.966 294.415 C 190.268 293.524 193.33 292.421 196.278 291.218 C 188.337 279.434 183.084 265.862 179.912 251.524 Z M 175.666 149.524 C 170.078 170.38 165.079 200.399 166.455 230.509 C 168.918 229.44 171.52 228.444 174.41 227.624 L 176.423 227.174 C 173.969 195.012 179.274 162.238 185.25 139.939 C 186.765 134.298 188.284 129.051 189.798 124.158 C 187.359 125.71 184.733 127.301 181.742 128.94 C 179.725 135.166 177.688 141.971 175.666 149.524 Z" fill="#C04B41"/>
  </g>
  <g style="" transform="matrix(0.480153, 0, 0, 0.480153, -11.337897, 101.040237)">
    <path d="M 174.41 227.629 C 161.524 231.286 153.07 237.698 147.501 244.105 C 152.835 239.437 159.98 235.153 169.618 232.421 C 179.476 229.627 187.886 229.647 194.835 230.988 L 194.835 225.554 C 188.907 225.012 182.111 225.444 174.41 227.629 Z M 146.912 181.949 L 99.056 194.557 C 99.056 194.557 99.928 195.789 101.543 197.433 L 142.119 186.741 C 142.119 186.741 141.544 194.15 136.551 200.778 C 145.996 193.632 146.912 181.949 146.912 181.949 Z M 186.971 294.42 C 119.624 312.559 83.993 234.511 73.206 194.001 C 68.222 175.302 66.046 161.14 65.466 152.001 C 65.404 151.052 65.433 150.252 65.5 149.519 C 62.006 149.73 60.334 151.546 60.674 156.794 C 61.254 165.928 63.43 180.089 68.414 198.794 C 79.196 239.298 114.832 317.346 182.179 299.207 C 196.838 295.258 207.851 288.065 216.118 278.883 C 208.498 285.765 198.961 291.185 186.971 294.42 Z M 199.627 134.183 L 199.627 138.976 L 226.043 138.976 C 225.501 137.279 224.955 135.75 224.413 134.183 L 199.627 134.183 Z" fill="#2D4552"/>
    <path d="M 231.947 173.657 C 243.827 177.031 250.11 185.36 253.431 192.731 L 266.677 196.493 C 266.677 196.493 264.87 170.696 241.536 164.068 C 219.707 157.866 206.274 176.197 204.64 178.569 C 210.99 174.045 220.263 170.341 231.947 173.657 Z M 337.388 192.85 C 315.539 186.62 302.111 204.989 300.501 207.328 C 306.856 202.809 316.124 199.104 327.803 202.435 C 339.664 205.814 345.942 214.133 349.273 221.509 L 362.538 225.285 C 362.538 225.285 360.702 199.483 337.388 192.85 Z M 324.228 260.868 L 214.038 230.063 C 214.038 230.063 215.231 236.111 219.808 243.942 L 312.583 269.878 C 320.221 265.459 324.228 260.868 324.228 260.868 Z M 247.833 327.175 C 160.584 303.783 171.132 192.616 185.25 139.938 C 191.063 118.229 197.039 102.094 201.995 91.277 C 199.038 90.669 196.589 92.226 194.169 97.148 C 188.907 107.82 182.178 125.197 175.666 149.523 C 161.552 202.2 151.004 313.363 238.249 336.755 C 279.372 347.772 311.408 331.028 335.289 304.732 C 312.621 325.263 283.68 336.774 247.833 327.175 Z" fill="#2D4552"/>
    <path d="M 199.627 268.369 L 199.627 245.936 L 137.299 263.61 C 137.299 263.61 141.904 236.85 174.41 227.629 C 184.268 224.835 192.679 224.854 199.627 226.196 L 199.627 134.183 L 230.835 134.183 C 227.437 123.683 224.15 115.599 221.389 109.982 C 216.822 100.685 212.14 106.848 201.511 115.738 C 194.025 121.992 175.105 135.334 146.634 143.006 C 118.163 150.683 95.145 148.647 85.541 146.984 C 71.926 144.635 64.805 141.645 65.471 152.001 C 66.051 161.135 68.227 175.297 73.211 194.001 C 83.993 234.506 119.629 312.554 186.976 294.415 C 204.568 289.675 216.985 280.306 225.592 268.364 L 199.627 268.364 L 199.627 268.369 Z M 99.051 194.557 L 146.912 181.949 C 146.912 181.949 145.517 200.361 127.575 205.091 C 109.628 209.816 99.051 194.557 99.051 194.557 Z" fill="#E2574C"/>
    <path d="M 379.752 135.247 C 367.311 137.428 337.464 140.145 300.578 130.258 C 263.682 120.377 239.202 103.096 229.503 94.973 C 215.754 83.457 209.706 75.454 203.754 87.559 C 198.492 98.236 191.763 115.613 185.25 139.939 C 171.137 192.616 160.589 303.779 247.833 327.171 C 335.059 350.543 381.496 248.993 395.61 196.311 C 402.123 171.99 404.979 153.573 405.765 141.698 C 406.661 128.246 397.421 132.151 379.752 135.247 Z M 204.463 178.829 C 204.463 178.829 218.212 157.445 241.531 164.073 C 264.865 170.701 266.672 196.498 266.672 196.498 L 204.463 178.829 Z M 261.386 274.786 C 220.369 262.771 214.043 230.063 214.043 230.063 L 324.228 260.869 C 324.228 260.864 301.987 286.651 261.386 274.786 Z M 300.343 207.568 C 300.343 207.568 314.073 186.199 337.388 192.846 C 360.702 199.484 362.538 225.281 362.538 225.281 L 300.343 207.568 Z" fill="#2EAD33"/>
    <path d="M 177.846 252.113 L 137.299 263.605 C 137.299 263.605 141.703 238.513 171.573 228.569 L 148.613 142.403 L 146.629 143.006 C 118.158 150.684 95.14 148.647 85.537 146.984 C 71.922 144.636 64.8 141.645 65.466 152.002 C 66.046 161.136 68.222 175.297 73.206 194.002 C 83.989 234.506 119.625 312.554 186.971 294.415 L 188.955 293.792 L 177.846 252.113 Z M 99.051 194.558 L 146.912 181.949 C 146.912 181.949 145.517 200.361 127.575 205.091 C 109.628 209.816 99.051 194.558 99.051 194.558 Z" fill="#D65348"/>
    <path d="M 263.236 275.236 L 261.381 274.785 C 220.364 262.771 214.038 230.063 214.038 230.063 L 270.856 245.945 L 300.937 130.354 L 300.573 130.258 C 263.677 120.377 239.198 103.096 229.498 94.973 C 215.749 83.457 209.701 75.454 203.749 87.559 C 198.492 98.236 191.763 115.613 185.25 139.939 C 171.137 192.616 160.589 303.779 247.833 327.17 L 249.621 327.573 L 263.236 275.236 Z M 204.463 178.829 C 204.463 178.829 218.212 157.445 241.531 164.073 C 264.865 170.701 266.672 196.498 266.672 196.498 L 204.463 178.829 Z" fill="#1D8D22"/>
    <path d="M 179.912 251.524 L 169.038 254.61 C 171.607 269.092 176.135 282.99 183.242 295.268 C 184.479 294.995 185.706 294.76 186.966 294.415 C 190.268 293.524 193.33 292.421 196.278 291.218 C 188.337 279.434 183.084 265.862 179.912 251.524 Z M 175.666 149.524 C 170.078 170.38 165.079 200.399 166.455 230.509 C 168.918 229.44 171.52 228.444 174.41 227.624 L 176.423 227.174 C 173.969 195.012 179.274 162.238 185.25 139.939 C 186.765 134.298 188.284 129.051 189.798 124.158 C 187.359 125.71 184.733 127.301 181.742 128.94 C 179.725 135.166 177.688 141.971 175.666 149.524 Z" fill="#C04B41"/>
  </g>
  <title>github [#142]</title>
  <desc>Created with Sketch.</desc>
  <g id="Page-1" stroke="none" stroke-width="1" fill="none" fill-rule="evenodd" transform="matrix(2.777438, 0, 0, 2.777438, 167.72998, 103.908531)" style="">
    <g id="Dribbble-Light-Preview" transform="translate(-140.000000, -7559.000000)" fill="#000000">
      <g id="icons" transform="translate(56.000000, 160.000000)">
        <path d="M94,7399 C99.523,7399 104,7403.59 104,7409.253 C104,7413.782 101.138,7417.624 97.167,7418.981 C96.66,7419.082 96.48,7418.762 96.48,7418.489 C96.48,7418.151 96.492,7417.047 96.492,7415.675 C96.492,7414.719 96.172,7414.095 95.813,7413.777 C98.04,7413.523 100.38,7412.656 100.38,7408.718 C100.38,7407.598 99.992,7406.684 99.35,7405.966 C99.454,7405.707 99.797,7404.664 99.252,7403.252 C99.252,7403.252 98.414,7402.977 96.505,7404.303 C95.706,7404.076 94.85,7403.962 94,7403.958 C93.15,7403.962 92.295,7404.076 91.497,7404.303 C89.586,7402.977 88.746,7403.252 88.746,7403.252 C88.203,7404.664 88.546,7405.707 88.649,7405.966 C88.01,7406.684 87.619,7407.598 87.619,7408.718 C87.619,7412.646 89.954,7413.526 92.175,7413.785 C91.889,7414.041 91.63,7414.493 91.54,7415.156 C90.97,7415.418 89.522,7415.871 88.63,7414.304 C88.63,7414.304 88.101,7413.319 87.097,7413.247 C87.097,7413.247 86.122,7413.234 87.029,7413.87 C87.029,7413.87 87.684,7414.185 88.139,7415.37 C88.139,7415.37 88.726,7417.2 91.508,7416.58 C91.513,7417.437 91.522,7418.245 91.522,7418.489 C91.522,7418.76 91.338,7419.077 90.839,7418.982 C86.865,7417.627 84,7413.783 84,7409.253 C84,7403.59 88.478,7399 94,7399" id="github-[#142]"/>
      </g>
    </g>
  </g>
  <g id="g-1" stroke="none" stroke-width="1" fill="none" fill-rule="evenodd" transform="matrix(2.777438, 0, 0, 2.777438, 167.395172, 227.349792)" style="">
    <g id="g-2" transform="translate(-140.000000, -7559.000000)" fill="#000000">
      <g id="g-3" transform="translate(56.000000, 160.000000)">
        <path d="M94,7399 C99.523,7399 104,7403.59 104,7409.253 C104,7413.782 101.138,7417.624 97.167,7418.981 C96.66,7419.082 96.48,7418.762 96.48,7418.489 C96.48,7418.151 96.492,7417.047 96.492,7415.675 C96.492,7414.719 96.172,7414.095 95.813,7413.777 C98.04,7413.523 100.38,7412.656 100.38,7408.718 C100.38,7407.598 99.992,7406.684 99.35,7405.966 C99.454,7405.707 99.797,7404.664 99.252,7403.252 C99.252,7403.252 98.414,7402.977 96.505,7404.303 C95.706,7404.076 94.85,7403.962 94,7403.958 C93.15,7403.962 92.295,7404.076 91.497,7404.303 C89.586,7402.977 88.746,7403.252 88.746,7403.252 C88.203,7404.664 88.546,7405.707 88.649,7405.966 C88.01,7406.684 87.619,7407.598 87.619,7408.718 C87.619,7412.646 89.954,7413.526 92.175,7413.785 C91.889,7414.041 91.63,7414.493 91.54,7415.156 C90.97,7415.418 89.522,7415.871 88.63,7414.304 C88.63,7414.304 88.101,7413.319 87.097,7413.247 C87.097,7413.247 86.122,7413.234 87.029,7413.87 C87.029,7413.87 87.684,7414.185 88.139,7415.37 C88.139,7415.37 88.726,7417.2 91.508,7416.58 C91.513,7417.437 91.522,7418.245 91.522,7418.489 C91.522,7418.76 91.338,7419.077 90.839,7418.982 C86.865,7417.627 84,7413.783 84,7409.253 C84,7403.59 88.478,7399 94,7399" id="path-1"/>
      </g>
    </g>
  </g>
  <g id="g-4" stroke="none" stroke-width="1" fill="none" fill-rule="evenodd" transform="matrix(2.260973, 0, 0, 2.260973, 16.010101, 252.689026)" style="transform-origin: 10px 10px;">
    <g id="g-5" transform="translate(-140.000000, -7559.000000)" fill="#000000">
      <g id="g-6" transform="translate(56.000000, 160.000000)">
        <path d="M94,7399 C99.523,7399 104,7403.59 104,7409.253 C104,7413.782 101.138,7417.624 97.167,7418.981 C96.66,7419.082 96.48,7418.762 96.48,7418.489 C96.48,7418.151 96.492,7417.047 96.492,7415.675 C96.492,7414.719 96.172,7414.095 95.813,7413.777 C98.04,7413.523 100.38,7412.656 100.38,7408.718 C100.38,7407.598 99.992,7406.684 99.35,7405.966 C99.454,7405.707 99.797,7404.664 99.252,7403.252 C99.252,7403.252 98.414,7402.977 96.505,7404.303 C95.706,7404.076 94.85,7403.962 94,7403.958 C93.15,7403.962 92.295,7404.076 91.497,7404.303 C89.586,7402.977 88.746,7403.252 88.746,7403.252 C88.203,7404.664 88.546,7405.707 88.649,7405.966 C88.01,7406.684 87.619,7407.598 87.619,7408.718 C87.619,7412.646 89.954,7413.526 92.175,7413.785 C91.889,7414.041 91.63,7414.493 91.54,7415.156 C90.97,7415.418 89.522,7415.871 88.63,7414.304 C88.63,7414.304 88.101,7413.319 87.097,7413.247 C87.097,7413.247 86.122,7413.234 87.029,7413.87 C87.029,7413.87 87.684,7414.185 88.139,7415.37 C88.139,7415.37 88.726,7417.2 91.508,7416.58 C91.513,7417.437 91.522,7418.245 91.522,7418.489 C91.522,7418.76 91.338,7419.077 90.839,7418.982 C86.865,7417.627 84,7413.783 84,7409.253 C84,7403.59 88.478,7399 94,7399" id="path-2"/>
      </g>
    </g>
  </g>
  <g id="g-7" stroke="none" stroke-width="1" fill="none" fill-rule="evenodd" transform="matrix(2.260973, 0, 0, 2.260973, 19.142004, 129.850296)" style="transform-origin: 10px 10px;">
    <g id="g-8" transform="translate(-140.000000, -7559.000000)" fill="#000000">
      <g id="g-9" transform="translate(56.000000, 160.000000)">
        <path d="M94,7399 C99.523,7399 104,7403.59 104,7409.253 C104,7413.782 101.138,7417.624 97.167,7418.981 C96.66,7419.082 96.48,7418.762 96.48,7418.489 C96.48,7418.151 96.492,7417.047 96.492,7415.675 C96.492,7414.719 96.172,7414.095 95.813,7413.777 C98.04,7413.523 100.38,7412.656 100.38,7408.718 C100.38,7407.598 99.992,7406.684 99.35,7405.966 C99.454,7405.707 99.797,7404.664 99.252,7403.252 C99.252,7403.252 98.414,7402.977 96.505,7404.303 C95.706,7404.076 94.85,7403.962 94,7403.958 C93.15,7403.962 92.295,7404.076 91.497,7404.303 C89.586,7402.977 88.746,7403.252 88.746,7403.252 C88.203,7404.664 88.546,7405.707 88.649,7405.966 C88.01,7406.684 87.619,7407.598 87.619,7408.718 C87.619,7412.646 89.954,7413.526 92.175,7413.785 C91.889,7414.041 91.63,7414.493 91.54,7415.156 C90.97,7415.418 89.522,7415.871 88.63,7414.304 C88.63,7414.304 88.101,7413.319 87.097,7413.247 C87.097,7413.247 86.122,7413.234 87.029,7413.87 C87.029,7413.87 87.684,7414.185 88.139,7415.37 C88.139,7415.37 88.726,7417.2 91.508,7416.58 C91.513,7417.437 91.522,7418.245 91.522,7418.489 C91.522,7418.76 91.338,7419.077 90.839,7418.982 C86.865,7417.627 84,7413.783 84,7409.253 C84,7403.59 88.478,7399 94,7399" id="path-3"/>
      </g>
    </g>
  </g>
  <g id="g-10" stroke="none" stroke-width="1" fill="none" fill-rule="evenodd" transform="matrix(2.260973, 0, 0, 2.260973, 357.020721, 123.138817)" style="transform-origin: 10px 10px;">
    <g id="g-11" transform="translate(-140.000000, -7559.000000)" fill="#000000">
      <g id="g-12" transform="translate(56.000000, 160.000000)">
        <path d="M94,7399 C99.523,7399 104,7403.59 104,7409.253 C104,7413.782 101.138,7417.624 97.167,7418.981 C96.66,7419.082 96.48,7418.762 96.48,7418.489 C96.48,7418.151 96.492,7417.047 96.492,7415.675 C96.492,7414.719 96.172,7414.095 95.813,7413.777 C98.04,7413.523 100.38,7412.656 100.38,7408.718 C100.38,7407.598 99.992,7406.684 99.35,7405.966 C99.454,7405.707 99.797,7404.664 99.252,7403.252 C99.252,7403.252 98.414,7402.977 96.505,7404.303 C95.706,7404.076 94.85,7403.962 94,7403.958 C93.15,7403.962 92.295,7404.076 91.497,7404.303 C89.586,7402.977 88.746,7403.252 88.746,7403.252 C88.203,7404.664 88.546,7405.707 88.649,7405.966 C88.01,7406.684 87.619,7407.598 87.619,7408.718 C87.619,7412.646 89.954,7413.526 92.175,7413.785 C91.889,7414.041 91.63,7414.493 91.54,7415.156 C90.97,7415.418 89.522,7415.871 88.63,7414.304 C88.63,7414.304 88.101,7413.319 87.097,7413.247 C87.097,7413.247 86.122,7413.234 87.029,7413.87 C87.029,7413.87 87.684,7414.185 88.139,7415.37 C88.139,7415.37 88.726,7417.2 91.508,7416.58 C91.513,7417.437 91.522,7418.245 91.522,7418.489 C91.522,7418.76 91.338,7419.077 90.839,7418.982 C86.865,7417.627 84,7413.783 84,7409.253 C84,7403.59 88.478,7399 94,7399" id="path-4"/>
      </g>
    </g>
  </g>
  <g id="g-13" stroke="none" stroke-width="1" fill="none" fill-rule="evenodd" transform="matrix(2.260973, 0, 0, 2.260973, 353.720154, 249.380295)" style="transform-origin: 10px 10px;">
    <g id="g-14" transform="translate(-140.000000, -7559.000000)" fill="#000000">
      <g id="g-15" transform="translate(56.000000, 160.000000)">
        <path d="M94,7399 C99.523,7399 104,7403.59 104,7409.253 C104,7413.782 101.138,7417.624 97.167,7418.981 C96.66,7419.082 96.48,7418.762 96.48,7418.489 C96.48,7418.151 96.492,7417.047 96.492,7415.675 C96.492,7414.719 96.172,7414.095 95.813,7413.777 C98.04,7413.523 100.38,7412.656 100.38,7408.718 C100.38,7407.598 99.992,7406.684 99.35,7405.966 C99.454,7405.707 99.797,7404.664 99.252,7403.252 C99.252,7403.252 98.414,7402.977 96.505,7404.303 C95.706,7404.076 94.85,7403.962 94,7403.958 C93.15,7403.962 92.295,7404.076 91.497,7404.303 C89.586,7402.977 88.746,7403.252 88.746,7403.252 C88.203,7404.664 88.546,7405.707 88.649,7405.966 C88.01,7406.684 87.619,7407.598 87.619,7408.718 C87.619,7412.646 89.954,7413.526 92.175,7413.785 C91.889,7414.041 91.63,7414.493 91.54,7415.156 C90.97,7415.418 89.522,7415.871 88.63,7414.304 C88.63,7414.304 88.101,7413.319 87.097,7413.247 C87.097,7413.247 86.122,7413.234 87.029,7413.87 C87.029,7413.87 87.684,7414.185 88.139,7415.37 C88.139,7415.37 88.726,7417.2 91.508,7416.58 C91.513,7417.437 91.522,7418.245 91.522,7418.489 C91.522,7418.76 91.338,7419.077 90.839,7418.982 C86.865,7417.627 84,7413.783 84,7409.253 C84,7403.59 88.478,7399 94,7399" id="path-5"/>
      </g>
    </g>
  </g>
  <g id="g-19" stroke="none" stroke-width="1" fill="none" fill-rule="evenodd" transform="matrix(2.260973, 0, 0, 2.260973, 182.774368, 351.816833)" style="transform-origin: 10px 10px;">
    <g id="g-20" transform="translate(-140.000000, -7559.000000)" fill="#000000">
      <g id="g-21" transform="translate(56.000000, 160.000000)">
        <path d="M94,7399 C99.523,7399 104,7403.59 104,7409.253 C104,7413.782 101.138,7417.624 97.167,7418.981 C96.66,7419.082 96.48,7418.762 96.48,7418.489 C96.48,7418.151 96.492,7417.047 96.492,7415.675 C96.492,7414.719 96.172,7414.095 95.813,7413.777 C98.04,7413.523 100.38,7412.656 100.38,7408.718 C100.38,7407.598 99.992,7406.684 99.35,7405.966 C99.454,7405.707 99.797,7404.664 99.252,7403.252 C99.252,7403.252 98.414,7402.977 96.505,7404.303 C95.706,7404.076 94.85,7403.962 94,7403.958 C93.15,7403.962 92.295,7404.076 91.497,7404.303 C89.586,7402.977 88.746,7403.252 88.746,7403.252 C88.203,7404.664 88.546,7405.707 88.649,7405.966 C88.01,7406.684 87.619,7407.598 87.619,7408.718 C87.619,7412.646 89.954,7413.526 92.175,7413.785 C91.889,7414.041 91.63,7414.493 91.54,7415.156 C90.97,7415.418 89.522,7415.871 88.63,7414.304 C88.63,7414.304 88.101,7413.319 87.097,7413.247 C87.097,7413.247 86.122,7413.234 87.029,7413.87 C87.029,7413.87 87.684,7414.185 88.139,7415.37 C88.139,7415.37 88.726,7417.2 91.508,7416.58 C91.513,7417.437 91.522,7418.245 91.522,7418.489 C91.522,7418.76 91.338,7419.077 90.839,7418.982 C86.865,7417.627 84,7413.783 84,7409.253 C84,7403.59 88.478,7399 94,7399" id="path-7"/>
      </g>
    </g>
  </g>
</svg>